<svg width="4" height="16" viewBox="0 0 4 16" fill="none" xmlns="http://www.w3.org/2000/svg">
<path d="M2.33333 8.83334C2.79357 8.83334 3.16667 8.46025 3.16667 8.00001C3.16667 7.53977 2.79357 7.16668 2.33333 7.16668C1.8731 7.16668 1.5 7.53977 1.5 8.00001C1.5 8.46025 1.8731 8.83334 2.33333 8.83334Z" stroke="#98A2B3" stroke-width="1.66667" stroke-linecap="round" stroke-linejoin="round"/>
<path d="M2.33333 3.00001C2.79357 3.00001 3.16667 2.62691 3.16667 2.16668C3.16667 1.70644 2.79357 1.33334 2.33333 1.33334C1.8731 1.33334 1.5 1.70644 1.5 2.16668C1.5 2.62691 1.8731 3.00001 2.33333 3.00001Z" stroke="#98A2B3" stroke-width="1.66667" stroke-linecap="round" stroke-linejoin="round"/>
<path d="M2.33333 14.6667C2.79357 14.6667 3.16667 14.2936 3.16667 13.8333C3.16667 13.3731 2.79357 13 2.33333 13C1.8731 13 1.5 13.3731 1.5 13.8333C1.5 14.2936 1.8731 14.6667 2.33333 14.6667Z" stroke="#98A2B3" stroke-width="1.66667" stroke-linecap="round" stroke-linejoin="round"/>
</svg>
