<svg width="20" height="20" viewBox="0 0 20 20" fill="none" xmlns="http://www.w3.org/2000/svg">
<path d="M10 12.5C11.3807 12.5 12.5 11.3807 12.5 9.99998C12.5 8.61927 11.3807 7.49998 10 7.49998C8.6193 7.49998 7.50001 8.61927 7.50001 9.99998C7.50001 11.3807 8.6193 12.5 10 12.5Z" stroke="#667085" stroke-width="1.66667" stroke-linecap="round" stroke-linejoin="round"/>
<path d="M16.1667 12.5C16.0557 12.7513 16.0227 13.0301 16.0717 13.3005C16.1207 13.5708 16.2496 13.8202 16.4417 14.0166L16.4917 14.0666C16.6466 14.2214 16.7696 14.4052 16.8534 14.6076C16.9373 14.8099 16.9805 15.0268 16.9805 15.2458C16.9805 15.4648 16.9373 15.6817 16.8534 15.884C16.7696 16.0864 16.6466 16.2702 16.4917 16.425C16.3369 16.5799 16.1531 16.7029 15.9507 16.7867C15.7484 16.8706 15.5315 16.9138 15.3125 16.9138C15.0935 16.9138 14.8766 16.8706 14.6743 16.7867C14.4719 16.7029 14.2881 16.5799 14.1333 16.425L14.0833 16.375C13.8869 16.1829 13.6375 16.054 13.3672 16.005C13.0968 15.956 12.818 15.989 12.5667 16.1C12.3202 16.2056 12.11 16.381 11.9619 16.6046C11.8139 16.8282 11.7344 17.0902 11.7333 17.3583V17.5C11.7333 17.942 11.5577 18.3659 11.2452 18.6785C10.9326 18.991 10.5087 19.1666 10.0667 19.1666C9.62465 19.1666 9.20073 18.991 8.88817 18.6785C8.5756 18.3659 8.40001 17.942 8.40001 17.5V17.425C8.39356 17.1491 8.30427 16.8816 8.14377 16.6572C7.98326 16.4328 7.75896 16.2619 7.50001 16.1666C7.24866 16.0557 6.96985 16.0226 6.69952 16.0716C6.42919 16.1207 6.17974 16.2495 5.98334 16.4416L5.93334 16.4916C5.77855 16.6466 5.59474 16.7695 5.39241 16.8534C5.19008 16.9373 4.9732 16.9805 4.75418 16.9805C4.53515 16.9805 4.31827 16.9373 4.11594 16.8534C3.91361 16.7695 3.7298 16.6466 3.57501 16.4916C3.42005 16.3369 3.29712 16.153 3.21324 15.9507C3.12937 15.7484 3.0862 15.5315 3.0862 15.3125C3.0862 15.0935 3.12937 14.8766 3.21324 14.6742C3.29712 14.4719 3.42005 14.2881 3.57501 14.1333L3.62501 14.0833C3.81712 13.8869 3.946 13.6375 3.99501 13.3671C4.04403 13.0968 4.01094 12.818 3.90001 12.5666C3.79437 12.3202 3.61897 12.11 3.3954 11.9619C3.17182 11.8138 2.90983 11.7344 2.64168 11.7333H2.50001C2.05798 11.7333 1.63406 11.5577 1.3215 11.2452C1.00894 10.9326 0.833344 10.5087 0.833344 10.0666C0.833344 9.62462 1.00894 9.2007 1.3215 8.88813C1.63406 8.57557 2.05798 8.39998 2.50001 8.39998H2.57501C2.85084 8.39353 3.11835 8.30424 3.34276 8.14374C3.56717 7.98323 3.73811 7.75893 3.83334 7.49998C3.94427 7.24863 3.97736 6.96982 3.92835 6.69949C3.87933 6.42916 3.75046 6.17971 3.55834 5.98331L3.50834 5.93331C3.35338 5.77852 3.23045 5.59471 3.14658 5.39238C3.0627 5.19005 3.01953 4.97317 3.01953 4.75415C3.01953 4.53512 3.0627 4.31824 3.14658 4.11591C3.23045 3.91358 3.35338 3.72977 3.50834 3.57498C3.66313 3.42002 3.84695 3.29709 4.04928 3.21321C4.25161 3.12934 4.46848 3.08617 4.68751 3.08617C4.90654 3.08617 5.12341 3.12934 5.32574 3.21321C5.52807 3.29709 5.71189 3.42002 5.86668 3.57498L5.91668 3.62498C6.11308 3.81709 6.36252 3.94597 6.63285 3.99498C6.90318 4.044 7.182 4.01091 7.43334 3.89998H7.50001C7.74648 3.79434 7.95669 3.61894 8.10475 3.39537C8.25282 3.17179 8.33227 2.9098 8.33334 2.64165V2.49998C8.33334 2.05795 8.50894 1.63403 8.8215 1.32147C9.13406 1.00891 9.55798 0.833313 10 0.833313C10.442 0.833313 10.866 1.00891 11.1785 1.32147C11.4911 1.63403 11.6667 2.05795 11.6667 2.49998V2.57498C11.6677 2.84313 11.7472 3.10513 11.8953 3.3287C12.0433 3.55228 12.2535 3.72768 12.5 3.83331C12.7514 3.94424 13.0302 3.97733 13.3005 3.92832C13.5708 3.8793 13.8203 3.75043 14.0167 3.55831L14.0667 3.50831C14.2215 3.35335 14.4053 3.23042 14.6076 3.14655C14.8099 3.06267 15.0268 3.0195 15.2458 3.0195C15.4649 3.0195 15.6817 3.06267 15.8841 3.14655C16.0864 3.23042 16.2702 3.35335 16.425 3.50831C16.58 3.6631 16.7029 3.84692 16.7868 4.04925C16.8706 4.25158 16.9138 4.46845 16.9138 4.68748C16.9138 4.90651 16.8706 5.12338 16.7868 5.32571C16.7029 5.52804 16.58 5.71186 16.425 5.86665L16.375 5.91665C16.1829 6.11305 16.054 6.36249 16.005 6.63282C15.956 6.90315 15.9891 7.18197 16.1 7.43331V7.49998C16.2056 7.74645 16.381 7.95666 16.6046 8.10472C16.8282 8.25279 17.0902 8.33224 17.3583 8.33331H17.5C17.942 8.33331 18.366 8.50891 18.6785 8.82147C18.9911 9.13403 19.1667 9.55795 19.1667 9.99998C19.1667 10.442 18.9911 10.8659 18.6785 11.1785C18.366 11.4911 17.942 11.6666 17.5 11.6666H17.425C17.1569 11.6677 16.8949 11.7472 16.6713 11.8952C16.4477 12.0433 16.2723 12.2535 16.1667 12.5Z" stroke="#667085" stroke-width="1.66667" stroke-linecap="round" stroke-linejoin="round"/>
</svg>
