<svg width="18" height="20" viewBox="0 0 18 20" fill="none" xmlns="http://www.w3.org/2000/svg">
<path d="M1.5 5.00001H3.16667M3.16667 5.00001H16.5M3.16667 5.00001V16.6667C3.16667 17.1087 3.34226 17.5326 3.65482 17.8452C3.96738 18.1577 4.39131 18.3333 4.83333 18.3333H13.1667C13.6087 18.3333 14.0326 18.1577 14.3452 17.8452C14.6577 17.5326 14.8333 17.1087 14.8333 16.6667V5.00001H3.16667ZM5.66667 5.00001V3.33334C5.66667 2.89131 5.84226 2.46739 6.15482 2.15483C6.46738 1.84227 6.89131 1.66667 7.33333 1.66667H10.6667C11.1087 1.66667 11.5326 1.84227 11.8452 2.15483C12.1577 2.46739 12.3333 2.89131 12.3333 3.33334V5.00001M7.33333 9.16667V14.1667M10.6667 9.16667V14.1667" stroke="#667085" stroke-width="1.66667" stroke-linecap="round" stroke-linejoin="round"/>
</svg>
